<?xml version="1.0" encoding="UTF-8" standalone="no"?>
<!DOCTYPE svg PUBLIC "-//W3C//DTD SVG 1.1//EN" "http://www.w3.org/Graphics/SVG/1.1/DTD/svg11.dtd">
<svg width="100%" height="100%" viewBox="0 0 24 24" version="1.1" xmlns="http://www.w3.org/2000/svg" xmlns:xlink="http://www.w3.org/1999/xlink" xml:space="preserve" xmlns:serif="http://www.serif.com/" style="fill-rule:evenodd;clip-rule:evenodd;stroke-linecap:round;stroke-linejoin:round;">
    <g>
        <rect x="0" y="0" width="24" height="24" style="fill:none;fill-rule:nonzero;"/>
        <path d="M10,20.777C9.13,20.58 8.294,20.253 7.52,19.808" style="fill:none;fill-rule:nonzero;stroke:rgb(246,160,0);stroke-width:1.5px;"/>
        <path d="M4.579,17.093C4.034,16.3 3.619,15.425 3.352,14.501" style="fill:none;fill-rule:nonzero;stroke:rgb(246,160,0);stroke-width:1.5px;"/>
        <path d="M3.124,10.5C3.284,9.55 3.592,8.65 4.024,7.825L4.193,7.52" style="fill:none;fill-rule:nonzero;stroke:rgb(246,160,0);stroke-width:1.5px;"/>
        <path d="M6.907,4.579C7.843,3.935 8.892,3.475 10,3.223" style="fill:none;fill-rule:nonzero;stroke:rgb(246,160,0);stroke-width:1.5px;"/>
        <g transform="matrix(1,0,0,-1,0,24)">
            <g transform="matrix(-1,0,0,1,24.1224,0)">
                <path d="M10,20.777C9.13,20.58 8.294,20.253 7.52,19.808" style="fill:none;fill-rule:nonzero;stroke:rgb(246,160,0);stroke-width:1.5px;"/>
            </g>
            <g transform="matrix(-1,0,0,1,24.1224,0)">
                <path d="M4.579,17.093C4.034,16.3 3.619,15.425 3.352,14.501" style="fill:none;fill-rule:nonzero;stroke:rgb(246,160,0);stroke-width:1.5px;"/>
            </g>
            <g transform="matrix(-1,0,0,1,24.1224,0)">
                <path d="M3.124,10.5C3.284,9.55 3.592,8.65 4.024,7.825L4.193,7.52" style="fill:none;fill-rule:nonzero;stroke:rgb(246,160,0);stroke-width:1.5px;"/>
            </g>
            <g transform="matrix(-1,0,0,1,24.1224,0)">
                <path d="M6.907,4.579C7.843,3.935 8.892,3.475 10,3.223" style="fill:none;fill-rule:nonzero;stroke:rgb(246,160,0);stroke-width:1.5px;"/>
            </g>
        </g>
    </g>
</svg>
