<?xml version="1.0" encoding="UTF-8" standalone="no"?>
<!DOCTYPE svg PUBLIC "-//W3C//DTD SVG 1.1//EN" "http://www.w3.org/Graphics/SVG/1.1/DTD/svg11.dtd">
<svg width="100%" height="100%" viewBox="0 0 2048 2048" version="1.1" xmlns="http://www.w3.org/2000/svg" xmlns:xlink="http://www.w3.org/1999/xlink" xml:space="preserve" xmlns:serif="http://www.serif.com/" style="fill-rule:evenodd;clip-rule:evenodd;stroke-linejoin:round;stroke-miterlimit:2;">
    <rect id="app-icon" x="0" y="0" width="2048" height="2048" style="fill:none;"/>
    <g id="app-icon1" serif:id="app-icon">
        <g transform="matrix(0.94154,0,0,0.94154,-4906.93,95.2247)">
            <path d="M5707.28,455.154C5887.6,450.083 6047.69,616.23 6064.55,825.947C6081.42,1035.66 5948.73,1210.04 5768.41,1215.12C5588.09,1220.19 5428.01,1054.04 5411.14,844.322C5394.27,634.606 5526.97,460.225 5707.28,455.154ZM6407.96,938.452C6644.78,936.161 6827.53,1090.8 6815.8,1283.57C6804.07,1476.34 6602.27,1634.7 6365.44,1636.99C6128.62,1639.28 5945.87,1484.64 5957.6,1291.87C5969.33,1099.11 6171.13,940.743 6407.96,938.452ZM5912.04,1367.81C6015.17,1509.23 5992.47,1727.51 5861.38,1854.95C5730.29,1982.4 5540.13,1971.05 5437,1829.63C5333.86,1688.21 5356.56,1469.93 5487.65,1342.48C5618.74,1215.04 5808.9,1226.38 5912.04,1367.81ZM6248.48,841.332C6039.51,768.057 5911.88,404.793 5982.49,259.335C5988.74,246.391 6000.19,236.707 6014,232.692C6027.8,228.677 6042.66,230.707 6054.88,238.279C6106.23,270.089 6168.05,332.559 6205.53,381.053C6263.95,217.598 6359.21,51.274 6491.55,33.472C6513.9,30.497 6535.98,40.59 6548.35,59.439C6600.64,139.2 6592.2,278.764 6590.43,387.825C6747.28,318.2 6962,268.486 7115.86,306.962C7187.02,324.873 7231.64,395.417 7217.34,467.385C7193.35,588.334 7090.07,706.098 6952.92,785.19C6698.74,931.78 6400.54,894.652 6248.48,841.332Z" style="fill:rgb(137,83,83);"/>
        </g>
        <g transform="matrix(0.94154,0,0,0.94154,-4906.93,95.2247)">
            <path d="M6637.14,1.16L6637.17,1.208C6666.1,45.321 6683.6,102.006 6691.61,164.589C6694.56,187.613 6696.28,211.534 6697.21,235.714C6846.87,191.308 7013.15,171.799 7141.63,203.926C7141.68,203.939 7141.74,203.953 7141.79,203.966C7267.8,235.685 7346.84,360.615 7321.52,488.069C7292.44,634.632 7172.17,781.353 7005.99,877.195C6933.91,918.76 6858.74,947.363 6783.82,965.889C6876.97,1049.6 6929.43,1164.9 6921.81,1290.02C6907.12,1531.38 6662.99,1740.33 6366.47,1743.19C6255.8,1744.27 6155.43,1716.88 6073.46,1669.94C6055.05,1767.23 6008.41,1860.15 5935.42,1931.11C5754.87,2106.63 5493.22,2086.98 5351.18,1892.21C5218.74,1710.59 5245.27,1430 5413.62,1266.33C5435.28,1245.28 5458.14,1227.08 5481.83,1211.68C5385.18,1126.76 5317.02,998.884 5305.27,852.838C5283.1,577.215 5467.31,355.652 5704.3,348.987C5757.29,347.497 5809.21,356.95 5858.09,375.717C5856.47,312.159 5866.32,255.444 5886.9,213.048C5887.7,211.404 5888.58,209.802 5889.55,208.249L5901.05,189.704C5903.01,186.55 5905.29,183.609 5907.86,180.931L5922.8,165.352C5925.36,162.689 5928.18,160.3 5931.23,158.222L5949.08,146.071C5952.15,143.982 5955.42,142.22 5958.86,140.815L5979.06,132.551C5982.51,131.138 5986.1,130.094 5989.77,129.434L6011.25,125.574C6014.9,124.918 6018.62,124.646 6022.33,124.763L6043.9,125.447C6047.59,125.564 6051.26,126.065 6054.85,126.942L6075.82,132.073C6079.42,132.956 6082.92,134.213 6086.27,135.826L6105.92,145.307C6107.6,146.116 6109.23,147.013 6110.82,147.994C6130.17,159.982 6150.85,175.528 6171.48,193.034C6200.79,137.144 6234.51,85.95 6272.12,44.787C6331.4,-20.077 6401.02,-61.516 6477.39,-71.789L6477.54,-71.809C6540.34,-80.168 6602.38,-51.806 6637.14,1.16Z" style="fill:white;"/>
        </g>
        <g transform="matrix(0.94154,0,0,0.94154,-4906.93,95.2247)">
            <path d="M5707.28,455.154C5887.6,450.083 6047.69,616.23 6064.55,825.947C6081.42,1035.66 5948.73,1210.04 5768.41,1215.12C5588.09,1220.19 5428.01,1054.04 5411.14,844.322C5394.27,634.606 5526.97,460.225 5707.28,455.154ZM6407.96,938.452C6644.78,936.161 6827.53,1090.8 6815.8,1283.57C6804.07,1476.34 6602.27,1634.7 6365.44,1636.99C6128.62,1639.28 5945.87,1484.64 5957.6,1291.87C5969.33,1099.11 6171.13,940.743 6407.96,938.452ZM5912.04,1367.81C6015.17,1509.23 5992.47,1727.51 5861.38,1854.95C5730.29,1982.4 5540.13,1971.05 5437,1829.63C5333.86,1688.21 5356.56,1469.93 5487.65,1342.48C5618.74,1215.04 5808.9,1226.38 5912.04,1367.81ZM6248.48,841.332C6039.51,768.057 5911.88,404.793 5982.49,259.335C5988.74,246.391 6000.19,236.707 6014,232.692C6027.8,228.677 6042.66,230.707 6054.88,238.279C6106.23,270.089 6168.05,332.559 6205.53,381.053C6263.95,217.598 6359.21,51.274 6491.55,33.472C6513.9,30.497 6535.98,40.59 6548.35,59.439C6600.64,139.2 6592.2,278.764 6590.43,387.825C6747.28,318.2 6962,268.486 7115.86,306.962C7187.02,324.873 7231.64,395.417 7217.34,467.385C7193.35,588.334 7090.07,706.098 6952.92,785.19C6698.74,931.78 6400.54,894.652 6248.48,841.332Z" style="fill:rgb(100,49,147);"/>
        </g>
    </g>
</svg>
